PathFileType  4	(X/Y/Z) C:\Users\antoi\Documents\MyRepositories\mobilecap\ResultsAnalysis
DataRate	CameraRate	NumFrames	NumMarkers	Units	OrigDataRate	OrigDataStartFrame	OrigNumFrames
100.0	100.0	4	51	mm	100.0	124	247
Frame#	Time	r_knee			r_shank_antsup			r_ankle			r_calc			r_5meta			r_toe			L_knee			L_shank_antsup			L_ankle			L_calc			L_5meta			L_toe			r_sh2			r_sh3			r_sh4			L_sh2			L_sh3			r_thigh1			r_thigh2			r_thigh3			r_thigh4			r_thigh5			L_thigh1			L_thigh2			L_thigh3			L_thigh4			r.ASIS			r.PSIS			L.ASIS			L.PSIS			C7			R_Shoulder			L_Shoulder			R_Sternum			L_Sternum			R_humerus			R_elbow_med			R_elbow_lat			R_forearm			R_wrist_radius			R_wrist_ulna			L_humerus			L_elbow_med			L_elbow_lat			L_forearm			L_wrist_radius			L_wrist_ulna			R_HJC			L_HJC			R_HJC_reg			L_HJC_reg			
		X1	Y1	Z1	X2	Y2	Z2	X3	Y3	Z3	X4	Y4	Z4	X5	Y5	Z5	X6	Y6	Z6	X7	Y7	Z7	X8	Y8	Z8	X9	Y9	Z9	X10	Y10	Z10	X11	Y11	Z11	X12	Y12	Z12	X13	Y13	Z13	X14	Y14	Z14	X15	Y15	Z15	X16	Y16	Z16	X17	Y17	Z17	X18	Y18	Z18	X19	Y19	Z19	X20	Y20	Z20	X21	Y21	Z21	X22	Y22	Z22	X23	Y23	Z23	X24	Y24	Z24	X25	Y25	Z25	X26	Y26	Z26	X27	Y27	Z27	X28	Y28	Z28	X29	Y29	Z29	X30	Y30	Z30	X31	Y31	Z31	X32	Y32	Z32	X33	Y33	Z33	X34	Y34	Z34	X35	Y35	Z35	X36	Y36	Z36	X37	Y37	Z37	X38	Y38	Z38	X39	Y39	Z39	X40	Y40	Z40	X41	Y41	Z41	X42	Y42	Z42	X43	Y43	Z43	X44	Y44	Z44	X45	Y45	Z45	X46	Y46	Z46	X47	Y47	Z47	X48	Y48	Z48	X49	Y49	Z49	X50	Y50	Z50	X51	Y51	Z51	

124	1.23000000	-195.22837	573.57915	-313.75387	-179.83859	430.25585	-296.43335	-346.73338	107.17463	-248.84069	-407.21138	74.76285	-307.89839	-221.68757	43.50119	-203.10807	-178.47982	66.07617	-252.93601	-224.24555	566.43169	-822.36084	-208.07367	370.19707	-829.09113	-390.27781	119.21717	-834.24388	-443.72241	79.62835	-766.57597	-281.00495	39.31046	-910.53274	-223.55347	65.36729	-864.22380	-211.35204	322.75009	-286.31786	-243.53551	449.76022	-262.93060	-277.88551	344.36277	-243.61235	-278.01459	407.76416	-869.24986	-324.45029	297.01054	-859.05580	-369.08666	801.18354	-328.14718	-281.89650	730.47516	-315.80116	-305.93457	666.89334	-310.59127	-439.14709	712.85497	-357.72415	-346.99994	638.21632	-336.32704	-365.12452	818.05556	-786.96647	-271.91246	722.48048	-806.83862	-447.66388	744.72761	-786.05187	-352.04851	649.22180	-817.02768	-445.94208	962.63563	-424.43840	-619.49602	1026.86515	-512.36965	-449.53443	950.81638	-688.68933	-618.23747	1028.43211	-604.54831	-340.85448	1455.86273	-590.04825	-284.03922	1385.53571	-411.87966	-274.89058	1387.50649	-756.79461	-246.61968	1328.13825	-547.38602	-243.61316	1323.26860	-598.27088	-470.61380	1227.42518	-291.07550	-625.14601	1193.72672	-317.39850	-593.87822	1227.72344	-242.78834	-494.68554	1035.45892	-223.39441	-454.17335	958.25446	-225.19460	-479.83018	950.90702	-199.70168	-413.43527	1153.71578	-868.10635	-545.35714	1130.90728	-845.70440	-504.69885	1128.60984	-920.26218	-353.72662	995.89655	-876.61366	-303.50823	958.89605	-845.76562	-314.83361	943.60290	-872.08094	-541.68396	884.29985	-455.20377	-547.45440	881.14347	-652.57182	-530.65857	888.54915	-464.25737	-528.27915	891.53391	-638.80714	
125	1.24000000	-177.74048	574.69908	-311.63779	-162.23569	429.44720	-295.71235	-341.73471	112.91743	-250.91942	-403.43826	80.49378	-310.90090	-220.25164	44.90451	-204.33834	-175.79950	65.83342	-253.75567	-202.65560	566.62370	-826.96072	-192.85909	368.82498	-830.54511	-384.43351	125.28644	-833.22022	-439.41750	84.89528	-764.28883	-279.42652	40.85996	-909.72072	-220.57159	64.95699	-863.53884	-199.84327	322.32347	-287.34302	-223.73969	451.65786	-259.90861	-263.56157	348.61513	-241.37391	-259.81556	408.67308	-871.85276	-312.40065	300.90830	-860.20079	-365.76689	790.61106	-328.47078	-272.87339	727.88561	-314.31979	-292.69302	662.55129	-309.39978	-428.94730	699.56178	-354.09102	-330.82875	631.34094	-336.10995	-361.27294	809.22241	-786.37279	-261.60825	721.32123	-808.85139	-438.74243	730.17304	-786.92050	-336.02126	642.38726	-819.66008	-443.51800	937.80958	-423.01992	-615.71937	1005.92522	-511.19497	-446.83058	925.11845	-688.22038	-614.13605	1006.46887	-603.71064	-331.04975	1427.43058	-589.52377	-277.34355	1356.74937	-411.56877	-270.05612	1358.19706	-756.73530	-237.03613	1299.52154	-547.00143	-233.86691	1294.48880	-598.28384	-457.60434	1188.07412	-292.25130	-609.00178	1144.78055	-318.14106	-580.58655	1180.77839	-244.31341	-469.38545	994.18365	-226.43757	-424.19687	919.58768	-229.37629	-449.66583	910.66511	-203.62559	-397.40535	1115.11996	-864.59659	-528.06693	1084.71809	-843.24896	-486.00249	1083.65565	-917.62753	-328.71621	958.97312	-869.81643	-277.30053	925.03702	-838.16622	-287.89308	908.77576	-864.14022	-540.83282	861.49238	-453.86343	-546.57668	857.77714	-651.22181	-530.35217	866.25952	-462.51979	-527.35153	867.28295	-637.73626	
126	1.25000000	-161.89090	575.06185	-308.09306	-148.26519	427.67657	-295.13504	-338.16775	117.10481	-254.45362	-400.23245	84.95771	-315.49764	-219.51571	46.21530	-205.73998	-174.08088	65.77738	-254.81289	-187.00197	563.83072	-829.62349	-183.17668	364.79345	-830.98711	-381.76149	127.20974	-832.85606	-437.53755	87.55516	-763.21119	-278.95173	41.41085	-909.69962	-219.79725	64.72589	-863.24633	-190.34996	320.88195	-288.94026	-208.41289	451.63843	-257.58221	-252.95858	350.27684	-241.12582	-248.48386	405.07817	-874.10903	-304.48192	299.92962	-861.10498	-364.06841	782.86485	-328.51550	-266.66412	727.02393	-312.79037	-281.90495	660.26421	-304.95433	-421.14488	687.13802	-348.04322	-318.01455	625.98198	-330.98324	-358.29542	800.62058	-783.94768	-254.37103	718.36758	-808.46276	-431.48593	718.48651	-789.01452	-325.16216	637.52599	-826.84774	-440.68771	915.97778	-421.15819	-612.04905	984.80112	-510.97900	-443.83185	901.43144	-688.49502	-610.29793	984.53064	-602.89714	-321.28433	1399.98327	-589.65508	-269.18050	1328.23214	-411.36419	-263.60325	1329.44481	-757.34011	-228.22817	1270.63967	-546.85685	-225.46871	1265.92959	-598.21171	-442.98519	1151.18159	-293.00435	-590.56552	1097.21303	-318.54795	-564.46899	1135.37017	-245.17634	-441.14416	955.39454	-229.48054	-391.37458	884.27743	-233.35456	-416.15494	873.34622	-207.63828	-379.67879	1078.45885	-861.35622	-508.91382	1040.18101	-840.79372	-465.25905	1040.39536	-914.66780	-301.93150	924.93081	-861.85755	-249.72866	894.22585	-828.27654	-259.02340	876.96318	-855.15515	-538.36047	840.10113	-452.52521	-544.09668	835.17623	-649.85541	-528.37924	844.42099	-460.58964	-525.01434	843.88871	-637.27567	
127	1.26000000	-151.06723	572.09438	-303.87964	-140.18004	425.06906	-292.17080	-336.86311	118.86543	-257.52497	-398.35261	87.17734	-319.68604	-219.73917	46.79167	-206.59847	-173.65724	65.79602	-255.39448	-176.62837	557.35995	-830.69165	-177.71625	359.00018	-831.98510	-381.98673	126.50251	-833.27397	-437.95512	87.45158	-763.64093	-279.31651	40.65371	-910.10535	-220.73345	64.62951	-863.76441	-184.27223	319.20377	-287.86251	-201.02990	449.79447	-256.31800	-247.71819	348.73827	-241.90280	-242.46098	400.56721	-875.01433	-300.55433	296.83206	-861.79201	-362.24280	774.40101	-326.25047	-263.33616	723.14384	-310.28919	-274.99446	655.31782	-299.30859	-415.41203	673.84521	-343.66147	-310.19511	618.22762	-323.61272	-355.99848	789.50470	-782.73241	-249.17620	711.42897	-808.25423	-425.83224	705.59263	-790.43423	-317.49559	629.30750	-831.66250	-437.38463	896.37397	-419.55806	-608.43935	963.76825	-511.35171	-440.68623	879.23508	-689.10609	-606.57320	963.01413	-602.56559	-311.72907	1373.71540	-590.37659	-260.04058	1300.41616	-411.47216	-255.53104	1301.80980	-758.33742	-220.18784	1241.80843	-546.95034	-217.89753	1237.21533	-598.65444	-426.43521	1115.83245	-293.54750	-569.85065	1051.86405	-318.05822	-545.67564	1091.85769	-244.85371	-410.38209	919.49310	-232.84133	-356.02649	852.46617	-237.64036	-379.61431	839.27781	-212.03656	-360.53433	1043.92282	-858.28906	-487.69120	997.90703	-838.39908	-442.58156	999.38122	-911.56302	-274.07549	893.94350	-852.96743	-221.01633	866.91074	-817.07040	-229.04102	848.93658	-845.43313	-534.77801	819.90691	-451.36307	-540.61427	813.26994	-648.64052	-525.14177	822.94400	-459.09705	-521.49681	821.47394	-637.32943	
